<svg xmlns="http://www.w3.org/2000/svg" width="48" height="48" fill="none" id="social-media"><g clip-path="url(#a)"><path fill="#000" d="M24 .001c-13.255 0-24 10.746-24 24 0 11.255 7.75 20.7 18.203 23.294v-15.96h-4.95v-7.334h4.95v-3.16c0-8.169 3.697-11.955 11.716-11.955 1.521 0 4.145.299 5.218.596v6.648c-.566-.06-1.55-.089-2.773-.089-3.935 0-5.455 1.49-5.455 5.366v2.594h7.84L33.4 31.336h-6.49v16.49C38.793 46.39 48 36.272 48 24 48 10.747 37.255.001 24 .001"/></g><defs><clipPath id="a"><path fill="#fff" d="M0 .001h48v48H0z"/></clipPath></defs></svg>