<svg xmlns="http://www.w3.org/2000/svg" width="48" height="48" fill="none" id="social-media"><g clip-path="url(#a)"><path fill="#000" d="M44.447.001H3.544C1.584.001 0 1.548 0 3.461v41.072C0 46.445 1.584 48 3.544 48h40.903C46.407 48 48 46.444 48 44.541V3.461C48 1.548 46.406 0 44.447 0M14.24 40.905H7.116V17.992h7.125zM10.678 14.87a4.127 4.127 0 0 1-4.134-4.125 4.127 4.127 0 0 1 4.134-4.125 4.125 4.125 0 0 1 4.125 4.125 4.13 4.13 0 0 1-4.125 4.125m30.225 26.035h-7.115V29.767c0-2.653-.047-6.075-3.704-6.075-3.703 0-4.265 2.897-4.265 5.887v11.325h-7.107V17.993h6.826v3.131h.093c.947-1.8 3.272-3.703 6.731-3.703 7.21 0 8.541 4.744 8.541 10.913z"/></g><defs><clipPath id="a"><path fill="#fff" d="M0 .001h48v48H0z"/></clipPath></defs></svg>